Coordinates
version=1
nRows=41
nColumns=38
inDegrees=no

Units are S.I. units (second, meters, Newtons, ...)
If the header above contains a line with 'inDegrees', this indicates whether rotational values are in degrees (yes) or radians (no).

endheader
time	pelvis_tilt	pelvis_list	pelvis_rotation	pelvis_tx	pelvis_ty	pelvis_tz	hip_flexion_r	hip_adduction_r	hip_rotation_r	knee_angle_r	ankle_angle_r	subtalar_angle_r	mtp_angle_r	hip_flexion_l	hip_adduction_l	hip_rotation_l	knee_angle_l	ankle_angle_l	subtalar_angle_l	mtp_angle_l	lumbar_extension	lumbar_bending	lumbar_rotation	arm_flex_r	arm_add_r	arm_rot_r	elbow_flex_r	pro_sup_r	wrist_flex_r	wrist_dev_r	arm_flex_l	arm_add_l	arm_rot_l	elbow_flex_l	pro_sup_l	wrist_flex_l	wrist_dev_l
0.64	0.183475	1.4851	-1.82991	1.02175	0.870839	0.940727	-0.176151	0.0211062	-0.183971	0.086838	0.184751	0	0	0.352396	-0.13438	-0.303462	0.555644	0.182872	0	0	-0.262717	-0.00998338	-0.08335	-0.259789	-0.245593	0.0918011	0.833029	0.455122	0	0	-0.135842	-0.323116	0.217538	0.691306	1.34192	0	0
0.65	0.196134	1.48719	-1.84071	1.02166	0.862149	0.939426	-0.186823	0.0205984	-0.185048	0.0825917	0.190391	0	0	0.350375	-0.124805	-0.314809	0.486463	0.175632	0	0	-0.263199	-0.0115457	-0.0856424	-0.254959	-0.244608	0.0923685	0.830681	0.456467	0	0	-0.136166	-0.322687	0.212976	0.690195	1.33718	0	0
0.66	0.220266	1.48914	-1.86219	1.02184	0.853474	0.938017	-0.196702	0.0187816	-0.187625	0.0796346	0.196824	0	0	0.346043	-0.111575	-0.320996	0.412307	0.166155	0	0	-0.263876	-0.0137293	-0.0885311	-0.250053	-0.243619	0.0928108	0.828046	0.457217	0	0	-0.135353	-0.322543	0.210435	0.687789	1.33249	0	0
0.67	0.250955	1.49159	-1.88942	1.02223	0.844762	0.936407	-0.205621	0.0167264	-0.190617	0.077524	0.204018	0	0	0.340435	-0.095668	-0.318842	0.335166	0.155894	0	0	-0.263797	-0.015927	-0.0920129	-0.245223	-0.242847	0.0939714	0.825393	0.457439	0	0	-0.133945	-0.32274	0.209732	0.684782	1.32845	0	0
0.68	0.285244	1.49409	-1.92025	1.02271	0.835886	0.934699	-0.213189	0.014308	-0.19524	0.0782845	0.21237	0	0	0.3319	-0.0779903	-0.307758	0.25357	0.14264	0	0	-0.263279	-0.018317	-0.0953635	-0.240606	-0.241979	0.095162	0.822266	0.457763	0	0	-0.13249	-0.322948	0.208673	0.682197	1.32239	0	0
0.69	0.311772	1.49701	-1.94345	1.0232	0.826868	0.932899	-0.218592	0.0122234	-0.201695	0.0831943	0.22226	0	0	0.32128	-0.0611931	-0.288758	0.170792	0.125754	0	0	-0.262374	-0.0198478	-0.0985281	-0.23631	-0.241192	0.095992	0.819135	0.457735	0	0	-0.131051	-0.322988	0.206489	0.680393	1.31473	0	0
0.7	0.327479	1.49949	-1.95725	1.02351	0.817566	0.93108	-0.223577	0.0102935	-0.208459	0.0907956	0.232985	0	0	0.307322	-0.0465684	-0.263995	0.0886069	0.10436	0	0	-0.261626	-0.0211957	-0.100191	-0.232664	-0.24046	0.0968445	0.815821	0.456898	0	0	-0.13002	-0.323181	0.20371	0.679121	1.30747	0	0
0.71	0.326817	1.50171	-1.95587	1.02368	0.807972	0.929174	-0.228822	0.00914481	-0.214773	0.0998597	0.244008	0	0	0.293084	-0.035579	-0.238031	0.0147743	0.0817934	0	0	-0.260897	-0.021908	-0.100326	-0.229982	-0.240425	0.098777	0.812987	0.455127	0	0	-0.129105	-0.323776	0.20456	0.673744	1.31269	0	0
0.72	0.303269	1.50288	-1.93043	1.02381	0.798884	0.927262	-0.235309	0.0106183	-0.217797	0.108791	0.252561	0	0	0.299388	-0.0322073	-0.231509	0	0.0774718	0	0	-0.262628	-0.0218821	-0.100478	-0.227475	-0.239385	0.0986886	0.810571	0.454735	0	0	-0.127003	-0.325381	0.206515	0.669284	1.31532	0	0
0.73	0.28853	1.50214	-1.91407	1.02383	0.789547	0.92557	-0.242704	0.0100833	-0.223928	0.120122	0.262862	0	0	0.307068	-0.0296556	-0.232319	0	0.0778279	0	0	-0.265895	-0.0236482	-0.100815	-0.224767	-0.237598	0.0982088	0.807222	0.45434	0	0	-0.125001	-0.327502	0.206642	0.666798	1.31802	0	0
0.74	0.286335	1.50091	-1.91195	1.02372	0.779756	0.923958	-0.249384	0.0078284	-0.230828	0.133917	0.273827	0	0	0.311439	-0.026214	-0.234843	0	0.0799394	0	0	-0.268612	-0.0269797	-0.0998747	-0.22256	-0.235725	0.0978317	0.803378	0.453396	0	0	-0.123697	-0.32979	0.205691	0.665315	1.32054	0	0
0.75	0.294087	1.49904	-1.92188	1.02343	0.769498	0.922444	-0.256046	0.00390291	-0.237251	0.14896	0.284737	0	0	0.312083	-0.0222336	-0.236894	0	0.0831766	0	0	-0.27061	-0.0319715	-0.0970882	-0.220929	-0.234112	0.0989024	0.798394	0.452071	0	0	-0.122935	-0.332264	0.205109	0.66328	1.32369	0	0
0.76	0.313472	1.4967	-1.94509	1.023	0.758797	0.920981	-0.26265	-0.00168948	-0.242607	0.164661	0.295264	0	0	0.309504	-0.0175147	-0.237093	0	0.0861825	0	0	-0.272013	-0.0385045	-0.0928732	-0.220102	-0.232242	0.0995232	0.79328	0.450405	0	0	-0.122703	-0.335054	0.205069	0.661176	1.32749	0	0
0.77	0.344735	1.49587	-1.98283	1.0225	0.747177	0.919455	-0.267907	-0.00938768	-0.24855	0.180092	0.30574	0	0	0.295736	-0.0105716	-0.235045	0	0.0865084	0	0	-0.269742	-0.0457106	-0.0862871	-0.220974	-0.230566	0.0993136	0.788004	0.449206	0	0	-0.123711	-0.337356	0.204903	0.659131	1.33132	0	0
0.78	0.366966	1.49101	-2.01021	1.02198	0.736291	0.918277	-0.275706	-0.0173327	-0.252581	0.19795	0.314311	0	0	0.298728	-0.00783553	-0.236614	0.00690788	0.0931698	0	0	-0.272791	-0.0544093	-0.0801399	-0.2215	-0.228659	0.0998403	0.783217	0.448208	0	0	-0.123291	-0.340499	0.203739	0.658329	1.33357	0	0
0.79	0.382086	1.48832	-2.03021	1.02148	0.725269	0.916922	-0.280333	-0.0243453	-0.257392	0.218779	0.32301	0	0	0.311342	-0.00936025	-0.251996	0.0614998	0.115	0	0	-0.273238	-0.0617629	-0.0737451	-0.222871	-0.227092	0.10087	0.778562	0.446154	0	0	-0.12333	-0.34315	0.201019	0.65769	1.33515	0	0
0.8	0.384367	1.48646	-2.03782	1.02102	0.713906	0.915529	-0.285771	-0.029937	-0.258677	0.237751	0.328583	0	0	0.32202	-0.0123071	-0.261165	0.114518	0.137765	0	0	-0.272282	-0.0676698	-0.066033	-0.2257	-0.226241	0.101907	0.77466	0.443252	0	0	-0.123751	-0.345719	0.202697	0.654575	1.34171	0	0
0.81	0.384627	1.48472	-2.04387	1.02072	0.702251	0.914192	-0.290728	-0.0363095	-0.259874	0.258119	0.332668	0	0	0.32912	-0.0142343	-0.264842	0.159765	0.157744	0	0	-0.270435	-0.0731464	-0.0578549	-0.229072	-0.226065	0.103464	0.770498	0.440241	0	0	-0.125091	-0.34726	0.202089	0.651852	1.34863	0	0
0.82	0.391532	1.4821	-2.05728	1.02059	0.690346	0.913081	-0.295547	-0.0448391	-0.260781	0.280053	0.335011	0	0	0.33075	-0.0132432	-0.26434	0.191212	0.166146	0	0	-0.268544	-0.0794259	-0.0493501	-0.232443	-0.226068	0.104659	0.76562	0.43772	0	0	-0.126839	-0.34768	0.198673	0.649359	1.35264	0	0
0.83	0.408692	1.47879	-2.08051	1.02072	0.678211	0.912182	-0.299625	-0.0554166	-0.261972	0.304073	0.335463	0	0	0.32768	-0.00891685	-0.260788	0.207884	0.156076	0	0	-0.266224	-0.0866004	-0.0417327	-0.235823	-0.225969	0.10536	0.760132	0.436423	0	0	-0.129053	-0.347569	0.194738	0.646692	1.35434	0	0
0.84	0.433509	1.47526	-2.11076	1.02107	0.665998	0.911455	-0.301682	-0.0677115	-0.263602	0.331579	0.334172	0	0	0.322371	-0.00318116	-0.259735	0.216483	0.130645	0	0	-0.263441	-0.0943872	-0.035141	-0.2385	-0.225627	0.105943	0.753398	0.435773	0	0	-0.131471	-0.347097	0.190092	0.643767	1.35567	0	0
0.85	0.465111	1.47161	-2.14646	1.02164	0.653636	0.910914	-0.301734	-0.0812042	-0.265557	0.362352	0.33032	0	0	0.316673	0.00292101	-0.261934	0.224995	0.102723	0	0	-0.259929	-0.102749	-0.0302536	-0.240614	-0.22458	0.10618	0.744887	0.435881	0	0	-0.134533	-0.346412	0.183983	0.640697	1.35754	0	0
0.86	0.497878	1.46845	-2.18136	1.0224	0.641169	0.91055	-0.299446	-0.0942285	-0.266435	0.396249	0.322341	0	0	0.314265	0.00730693	-0.267315	0.243518	0.0874663	0	0	-0.255391	-0.110833	-0.0274973	-0.242309	-0.222606	0.105954	0.734613	0.436048	0	0	-0.138451	-0.345967	0.176894	0.638265	1.35949	0	0
0.87	0.532028	1.46488	-2.21609	1.02328	0.628652	0.910473	-0.294969	-0.107696	-0.26692	0.433578	0.30889	0	0	0.314748	0.0105202	-0.273897	0.272045	0.0838176	0	0	-0.250785	-0.119297	-0.0266602	-0.243203	-0.21969	0.105731	0.722648	0.434638	0	0	-0.142879	-0.346347	0.170904	0.637392	1.35951	0	0
0.88	0.564347	1.46005	-2.24802	1.02423	0.616151	0.910815	-0.288472	-0.122339	-0.266934	0.47521	0.28925	0	0	0.3155	0.0138681	-0.278413	0.305148	0.0864449	0	0	-0.24732	-0.128518	-0.0273154	-0.243004	-0.216164	0.106325	0.709469	0.434267	0	0	-0.147514	-0.347454	0.165594	0.637535	1.35663	0	0
0.89	0.597306	1.45415	-2.27872	1.02541	0.603659	0.911606	-0.279611	-0.138265	-0.267807	0.521298	0.262799	0	0	0.314565	0.0187862	-0.280388	0.336952	0.0929018	0	0	-0.244847	-0.138406	-0.0300365	-0.24197	-0.212052	0.107746	0.694576	0.435756	0	0	-0.151905	-0.349273	0.161251	0.638632	1.34934	0	0
0.9	0.63346	1.44807	-2.31061	1.02686	0.591207	0.912724	-0.266439	-0.155294	-0.268618	0.573169	0.228175	0	0	0.311083	0.0256663	-0.281602	0.362624	0.100582	0	0	-0.242413	-0.148455	-0.034899	-0.240467	-0.207617	0.109783	0.678764	0.435302	0	0	-0.15585	-0.351284	0.157286	0.639855	1.34119	0	0
0.91	0.672379	1.44338	-2.34276	1.02867	0.578867	0.913908	-0.247812	-0.172013	-0.268621	0.629022	0.183764	0	0	0.306345	0.0340043	-0.280767	0.381692	0.107621	0	0	-0.238817	-0.157151	-0.0423233	-0.239088	-0.203678	0.113131	0.6639	0.432862	0	0	-0.159712	-0.353625	0.156327	0.640153	1.33625	0	0
0.92	0.716433	1.44077	-2.37842	1.03079	0.566655	0.914942	-0.223155	-0.188018	-0.266311	0.68787	0.131676	0	0	0.300887	0.0434036	-0.278744	0.393235	0.112597	0	0	-0.233092	-0.164098	-0.0513332	-0.237981	-0.200763	0.118663	0.650124	0.429387	0	0	-0.164005	-0.35617	0.155874	0.642449	1.3305	0	0
0.93	0.766472	1.44022	-2.4193	1.03309	0.554493	0.915717	-0.193844	-0.202932	-0.261431	0.747733	0.0709184	0	0	0.294741	0.0535765	-0.275458	0.397976	0.116732	0	0	-0.224818	-0.169348	-0.0608463	-0.237886	-0.199056	0.126588	0.637897	0.425175	0	0	-0.168838	-0.359141	0.158879	0.644925	1.32502	0	0
0.94	0.818179	1.44069	-2.46177	1.03546	0.542442	0.916321	-0.161761	-0.216955	-0.254935	0.80791	0.00517726	0	0	0.287038	0.0642984	-0.270696	0.397218	0.121042	0	0	-0.215397	-0.173269	-0.0701285	-0.238905	-0.198234	0.135041	0.628077	0.420394	0	0	-0.173201	-0.362406	0.163826	0.648173	1.31865	0	0
0.95	0.864585	1.44113	-2.49929	1.03782	0.53063	0.916924	-0.128527	-0.229808	-0.246905	0.86686	-0.0628684	0	0	0.277301	0.0750733	-0.264498	0.39369	0.125847	0	0	-0.206715	-0.176092	-0.0792277	-0.240166	-0.198281	0.143717	0.620633	0.414994	0	0	-0.176775	-0.366076	0.170124	0.652182	1.31073	0	0
0.96	0.902878	1.44051	-2.52955	1.04005	0.519136	0.917627	-0.0951065	-0.242338	-0.237766	0.924094	-0.130476	0	0	0.26546	0.0859969	-0.25686	0.388625	0.130823	0	0	-0.200003	-0.178882	-0.0880527	-0.240943	-0.198671	0.152246	0.61482	0.409135	0	0	-0.179301	-0.370445	0.177636	0.657816	1.30138	0	0
0.97	0.924175	1.43839	-2.54461	1.04197	0.507917	0.918603	-0.0633902	-0.254139	-0.22732	0.977906	-0.194837	0	0	0.250653	0.0959932	-0.24906	0.382928	0.135855	0	0	-0.196582	-0.181755	-0.0955159	-0.240905	-0.198915	0.159456	0.610004	0.403679	0	0	-0.180547	-0.375712	0.186426	0.664677	1.29128	0	0
0.98	0.920769	1.4351	-2.53683	1.04356	0.496974	0.919975	-0.0349665	-0.264159	-0.216526	1.02673	-0.252826	0	0	0.232405	0.10377	-0.242154	0.377264	0.140819	0	0	-0.197415	-0.183797	-0.101588	-0.239825	-0.199043	0.164742	0.60613	0.399691	0	0	-0.179992	-0.381295	0.196507	0.670063	1.28179	0	0
0.99	0.884885	1.43271	-2.49586	1.04631	0.486174	0.921788	-0.0127481	-0.282586	-0.205308	1.0646	-0.285092	0	0	0.210764	0.108945	-0.234383	0.371715	0.145668	0	0	-0.202487	-0.180095	-0.108232	-0.238408	-0.200819	0.167051	0.603599	0.39774	0	0	-0.177438	-0.385277	0.207777	0.674976	1.2735	0	0
1	0.831617	1.42816	-2.43882	1.04757	0.475783	0.92395	0.00547322	-0.286548	-0.196531	1.0995	-0.296888	0	0	0.185112	0.111529	-0.228092	0.364492	0.150044	0	0	-0.212127	-0.177745	-0.113898	-0.236075	-0.20086	0.166192	0.602272	0.397642	0	0	-0.172685	-0.392588	0.225625	0.680947	1.25393	0	0
1.01	0.778085	1.42516	-2.38131	1.04879	0.465732	0.926095	0.0246946	-0.286778	-0.188672	1.13307	-0.276192	0	0	0.161282	0.111115	-0.223352	0.358855	0.154588	0	0	-0.221445	-0.173295	-0.119726	-0.233069	-0.200492	0.162831	0.600497	0.401291	0	0	-0.166001	-0.397941	0.237879	0.683682	1.24284	0	0
1.02	0.727666	1.42302	-2.32739	1.04986	0.455878	0.928195	0.0460232	-0.285134	-0.180636	1.16636	-0.236207	0	0	0.138136	0.109341	-0.219701	0.352263	0.158814	0	0	-0.229691	-0.167995	-0.125097	-0.229966	-0.199789	0.15793	0.598459	0.407878	0	0	-0.158282	-0.40215	0.247166	0.68384	1.24075	0	0
1.03	0.6885	1.42005	-2.28571	1.04965	0.446131	0.930292	0.067932	-0.270727	-0.177008	1.1976	-0.201266	0	0	0.114317	0.106256	-0.21919	0.342786	0.163662	0	0	-0.236883	-0.165919	-0.129856	-0.227051	-0.197458	0.153234	0.596307	0.415153	0	0	-0.150197	-0.407221	0.254436	0.681899	1.24496	0	0
1.04	0.641742	1.41914	-2.23499	1.05083	0.436564	0.932346	0.0894275	-0.266576	-0.170193	1.21802	-0.165214	0	0	0.0912781	0.103309	-0.217092	0.332157	0.166962	0	0	-0.243313	-0.158846	-0.135408	-0.224311	-0.197288	0.149705	0.593707	0.420614	0	0	-0.141044	-0.409946	0.261028	0.679819	1.25313	0	0
